<svg width="105" height="36" viewBox="0 0 105 36" fill="none" xmlns="http://www.w3.org/2000/svg">
<g clip-path="url(#clip0)">
<path d="M20.9301 26.7733C19.6601 26.7733 18.46 26.2183 17.6376 25.2504C16.8152 24.2826 16.4612 23.0087 16.6658 21.7553L18.5663 10.1264C18.6542 9.58863 18.5023 9.04185 18.1491 8.6267C17.7963 8.21154 17.2813 7.97338 16.7362 7.97338C15.2132 7.97338 13.913 9.0613 13.6447 10.5607L11.7448 21.175C11.1642 24.4187 8.35109 26.7733 5.05548 26.7733C3.78746 26.7733 2.59723 26.2124 1.79003 25.2344C0.982827 24.2564 0.658142 22.9816 0.898838 21.7364L0.959716 21.4222C1.09754 20.708 1.78806 20.2415 2.50197 20.3788C3.21616 20.5166 3.68318 21.2071 3.54536 21.921L3.48448 22.2358C3.39344 22.7068 3.51633 23.1885 3.82128 23.5583C4.12624 23.928 4.57606 24.14 5.05548 24.14C7.07377 24.14 8.79697 22.6981 9.15237 20.7113L11.0523 10.0971C11.5455 7.34092 13.9358 5.34039 16.736 5.34039C18.055 5.34039 19.3013 5.91676 20.1556 6.92182C21.0099 7.92688 21.3777 9.24985 21.1649 10.5517L19.2644 22.1806C19.1843 22.6702 19.3227 23.1676 19.644 23.5453C19.9651 23.9232 20.4338 24.14 20.9298 24.14C22.9419 24.14 24.6468 22.7 24.9836 20.7164L27.6383 5.07236C28.1371 2.133 30.6627 0 33.6438 0H39.8523C40.5794 0 41.1691 0.589619 41.1691 1.31678C41.1691 2.04394 40.5794 2.63355 39.8523 2.63355H33.6438C31.9516 2.63355 30.5176 3.84464 30.2346 5.51288L27.5799 21.1569C27.0278 24.4111 24.2311 26.7733 20.9301 26.7733Z" fill="url(#paint0_linear)"/>
<path d="M4.66679 27.9438C6.78824 27.9438 8.54385 29.4798 8.10501 31.8208C7.66618 34.1615 5.61802 36 3.3503 36C1.08258 36 -0.307199 34.0248 0.0586353 31.9719C0.424469 29.9189 2.17952 27.9438 4.66679 27.9438Z" fill="url(#paint1_linear)"/>
<path d="M20.8331 27.9438C22.9546 27.9438 24.7102 29.4798 24.2713 31.8208C23.8325 34.1615 21.7843 36 19.5166 36C17.2489 36 15.8591 34.0248 16.225 31.9719C16.5902 29.9186 18.3458 27.9438 20.8331 27.9438Z" fill="url(#paint2_linear)"/>
<path d="M40.2299 11.9646V21.8965H37.9709V9.57481C37.9709 9.13936 38.0797 8.7941 38.2976 8.53875C38.5152 8.28368 38.8111 8.15601 39.1846 8.15601C39.3587 8.15601 39.5264 8.19321 39.6885 8.2679C39.85 8.34259 40.018 8.46716 40.1924 8.64134L49.7695 18.1437V8.21237H52.0285V20.6457C52.0285 21.0938 51.9194 21.4424 51.7018 21.691C51.484 21.9399 51.2007 22.0645 50.8524 22.0645C50.4665 22.0645 50.1058 21.8965 49.7698 21.5605L40.2299 11.9646Z" fill="#0A335B"/>
<path d="M68.4756 21.8965L66.4404 18.4803H60.0185L61.1389 16.5572H65.302L62.2775 11.4792L56.1167 21.8965H53.4099L61.2133 8.90319C61.35 8.667 61.512 8.48014 61.6986 8.34288C61.8855 8.20618 62.1093 8.1377 62.3708 8.1377C62.6324 8.1377 62.853 8.20618 63.0334 8.34288C63.2138 8.48014 63.3725 8.66672 63.5095 8.90319L71.3315 21.8965H68.4756Z" fill="#0A335B"/>
<path d="M76.8762 18.1254V15.829H82.3274C83.1611 15.829 83.8116 15.5928 84.278 15.1196C84.745 14.6469 84.9781 14.0246 84.9781 13.2529C84.9781 12.4685 84.745 11.8465 84.278 11.386C83.8116 10.9257 83.1608 10.6952 82.3274 10.6952H75.1401V21.8965H72.7878V8.32428H82.3274C83.1117 8.32428 83.8116 8.43955 84.4277 8.66954C85.0435 8.90009 85.5629 9.22365 85.9866 9.64021C86.4093 10.0573 86.7332 10.5644 86.957 11.1619C87.1813 11.7591 87.2932 12.4313 87.2932 13.1779C87.2932 13.9124 87.1813 14.5812 86.957 15.1849C86.7332 15.7886 86.4093 16.3084 85.9866 16.7438C85.5629 17.1796 85.0435 17.5186 84.4277 17.7613C83.8116 18.0039 83.1115 18.1254 82.3274 18.1254H76.8762Z" fill="#0A335B"/>
<path d="M101.164 21.8965L99.1292 18.4803H92.7071L93.8272 16.5572H97.9903L94.9661 11.4792L88.8055 21.8965H86.0987L93.9021 8.90319C94.0388 8.667 94.2006 8.48014 94.3875 8.34288C94.574 8.20618 94.7978 8.1377 95.0594 8.1377C95.3206 8.1377 95.5416 8.20618 95.722 8.34288C95.9021 8.48014 96.0611 8.66672 96.198 8.90319L104.02 21.8965H101.164Z" fill="#0A335B"/>
<path d="M39.2201 24.4675L38.8886 26.118H41.2944L41.215 26.5354H38.8088L38.4642 28.2586H41.2544L41.1682 28.683H37.894L38.8218 24.0433H42.0033L41.917 24.4675H39.2201V24.4675Z" fill="#0A335B"/>
<path d="M42.2358 26.6814H43.9722L43.8927 27.0923H42.1563L42.2358 26.6814Z" fill="#0A335B"/>
<path d="M47.0875 28.534C46.8442 28.4125 46.6577 28.24 46.5274 28.017C46.397 27.7941 46.3318 27.5342 46.3318 27.2383C46.3318 26.8451 46.4181 26.4917 46.5903 26.1777C46.7628 25.864 47.0035 25.6177 47.3127 25.4385C47.6218 25.2595 47.9711 25.1701 48.36 25.1701C48.6824 25.1701 48.96 25.2288 49.1917 25.3457C49.4237 25.463 49.6038 25.6363 49.732 25.866L49.3343 26.098C49.1356 25.7533 48.7974 25.5811 48.3203 25.5811C48.0331 25.5811 47.7735 25.6518 47.5415 25.793C47.3096 25.9345 47.1283 26.129 46.9981 26.3764C46.8676 26.6239 46.8025 26.9043 46.8025 27.2183C46.8025 27.5588 46.9029 27.8237 47.1041 28.0137C47.3051 28.2036 47.5911 28.2989 47.9623 28.2989C48.1875 28.2989 48.3964 28.2555 48.5886 28.1695C48.7808 28.0836 48.9386 27.9587 49.0624 27.7952L49.4003 28.0537C49.2456 28.2614 49.0392 28.4238 48.7805 28.541C48.5221 28.6582 48.2425 28.7166 47.942 28.7166C47.6154 28.716 47.3301 28.6554 47.0875 28.534Z" fill="#0A335B"/>
<path d="M50.7526 28.5339C50.5138 28.4125 50.3292 28.24 50.199 28.017C50.0685 27.7941 50.0034 27.5342 50.0034 27.2383C50.0034 26.8451 50.0897 26.4917 50.2619 26.1777C50.4344 25.864 50.6739 25.6177 50.9809 25.4385C51.2881 25.2595 51.6339 25.1701 52.0183 25.1701C52.5042 25.1701 52.8898 25.3029 53.1747 25.5678C53.4597 25.833 53.6023 26.191 53.6023 26.6414C53.6023 27.0348 53.516 27.3894 53.3438 27.705C53.1716 28.021 52.9318 28.2685 52.6249 28.4471C52.3176 28.6261 51.9721 28.7157 51.5874 28.7157C51.2695 28.716 50.9913 28.6554 50.7526 28.5339ZM52.3963 28.0898C52.626 27.9505 52.8061 27.7563 52.9363 27.5066C53.0668 27.2569 53.1319 26.9776 53.1319 26.6681C53.1319 26.328 53.0313 26.0616 52.8303 25.8694C52.6291 25.6772 52.3475 25.5811 51.9853 25.5811C51.6981 25.5811 51.4394 25.6518 51.21 25.793C50.9803 25.9345 50.7999 26.1301 50.6697 26.3798C50.5392 26.6295 50.4741 26.9088 50.4741 27.2183C50.4741 27.5588 50.5744 27.8237 50.7757 28.0137C50.9766 28.2036 51.2582 28.2989 51.6206 28.2989C51.9081 28.2986 52.1663 28.229 52.3963 28.0898Z" fill="#0A335B"/>
<path d="M60.0613 25.4649C60.2755 25.6617 60.3829 25.9367 60.3829 26.2902C60.3829 26.3919 60.3674 26.5289 60.3364 26.7011L59.9387 28.6828H59.468L59.8657 26.6943C59.8877 26.5929 59.899 26.4844 59.899 26.3697C59.899 26.1222 59.8263 25.9311 59.6803 25.7964C59.5343 25.6617 59.3201 25.5943 59.0374 25.5943C58.6837 25.5943 58.39 25.6927 58.1558 25.8894C57.9216 26.0861 57.7649 26.3764 57.6851 26.7609L57.3007 28.683H56.83L57.2277 26.6946C57.2496 26.5709 57.2609 26.4649 57.2609 26.3764C57.2609 26.1245 57.1891 25.9314 57.0456 25.7964C56.9021 25.6617 56.6865 25.5943 56.3996 25.5943C56.0417 25.5943 55.7454 25.6972 55.5112 25.9026C55.277 26.1081 55.1181 26.4119 55.0341 26.8141L54.6629 28.6833H54.1922L54.8816 25.1972H55.3323L55.2195 25.7538C55.5377 25.3652 55.9774 25.1704 56.5383 25.1704C56.83 25.1704 57.0741 25.2302 57.2708 25.3494C57.4672 25.4686 57.6031 25.6408 57.6783 25.8663C57.8505 25.6366 58.0616 25.4632 58.3114 25.346C58.5608 25.229 58.8404 25.1704 59.1498 25.1704C59.5433 25.1701 59.8471 25.2685 60.0613 25.4649Z" fill="#0A335B"/>
<path d="M67.0933 25.4649C67.3075 25.6617 67.4149 25.9367 67.4149 26.2902C67.4149 26.3919 67.3994 26.5289 67.3684 26.7011L66.9707 28.6828H66.5001L66.8977 26.6943C66.9197 26.5929 66.931 26.4844 66.931 26.3697C66.931 26.1222 66.8583 25.9311 66.7123 25.7964C66.5663 25.6617 66.3521 25.5943 66.0694 25.5943C65.716 25.5943 65.422 25.6927 65.1878 25.8894C64.9536 26.0861 64.7969 26.3764 64.7171 26.7609L64.333 28.683H63.8623L64.26 26.6946C64.2819 26.5709 64.2932 26.4649 64.2932 26.3764C64.2932 26.1245 64.2211 25.9314 64.0779 25.7964C63.9341 25.6617 63.7185 25.5943 63.4313 25.5943C63.0737 25.5943 62.7775 25.6972 62.5435 25.9026C62.3093 26.1081 62.1501 26.4119 62.0664 26.8141L61.6952 28.6833H61.2245L61.9136 25.1972H62.3643L62.2515 25.7538C62.5697 25.3652 63.0091 25.1704 63.5706 25.1704C63.8623 25.1704 64.1063 25.2302 64.3031 25.3494C64.4995 25.4686 64.6357 25.6408 64.7106 25.8663C64.8831 25.6366 65.0939 25.4632 65.3436 25.346C65.5934 25.229 65.8727 25.1704 66.1821 25.1704C66.5756 25.1701 66.8791 25.2685 67.0933 25.4649Z" fill="#0A335B"/>
<path d="M68.7075 27.0723C68.703 27.1033 68.7007 27.1495 68.7007 27.2112C68.7007 27.565 68.8014 27.8344 69.0023 28.0198C69.2033 28.2053 69.5026 28.2983 69.9003 28.2983C70.1302 28.2983 70.3456 28.2594 70.5468 28.1822C70.7478 28.105 70.9121 27.9979 71.0406 27.8606L71.2525 28.1985C71.0891 28.362 70.8847 28.4891 70.6395 28.5799C70.3943 28.6703 70.1348 28.7157 69.8608 28.7157C69.3571 28.7157 68.9603 28.5833 68.6709 28.318C68.3814 28.0528 68.2368 27.6907 68.2368 27.231C68.2368 26.8423 68.3197 26.4908 68.4854 26.1771C68.6511 25.8635 68.8808 25.6171 69.1745 25.4379C69.4685 25.2589 69.7988 25.1696 70.1658 25.1696C70.6297 25.1696 70.9986 25.3012 71.2726 25.5639C71.5462 25.8268 71.6832 26.1881 71.6832 26.6475C71.6832 26.7758 71.6677 26.917 71.637 27.0717H68.7075V27.0723ZM69.2574 25.8792C69.0099 26.087 68.8419 26.3677 68.7537 26.7211H71.2393C71.2435 26.6904 71.2458 26.6484 71.2458 26.5951C71.2458 26.2682 71.1463 26.0151 70.9476 25.8361C70.7489 25.6571 70.4837 25.5678 70.1522 25.5678C69.8033 25.5678 69.5051 25.6718 69.2574 25.8792Z" fill="#0A335B"/>
<path d="M73.8771 25.3325C74.1113 25.2242 74.3943 25.1701 74.7254 25.1701L74.6395 25.6276L74.5067 25.6211C74.1313 25.6211 73.823 25.7293 73.5823 25.9458C73.3416 26.1622 73.1792 26.4849 73.0952 26.9136L72.7441 28.6833H72.2734L72.9625 25.1972H73.4132L73.2937 25.8333C73.4484 25.6076 73.6429 25.4407 73.8771 25.3325Z" fill="#0A335B"/>
<path d="M75.5673 28.534C75.3243 28.4125 75.1378 28.24 75.0073 28.017C74.8771 27.7941 74.812 27.5342 74.812 27.2383C74.812 26.8451 74.8979 26.4917 75.0704 26.1777C75.2429 25.864 75.4833 25.6177 75.7931 25.4385C76.1022 25.2595 76.4514 25.1701 76.8404 25.1701C77.1628 25.1701 77.4402 25.2288 77.6718 25.3457C77.9041 25.463 78.0839 25.6363 78.2121 25.866L77.8145 26.098C77.6158 25.7533 77.2775 25.5811 76.8004 25.5811C76.5129 25.5811 76.2533 25.6518 76.0213 25.793C75.7894 25.9345 75.6084 26.129 75.4779 26.3764C75.3477 26.6239 75.2826 26.9043 75.2826 27.2183C75.2826 27.5588 75.383 27.8237 75.5839 28.0137C75.7852 28.2036 76.071 28.2989 76.4421 28.2989C76.6676 28.2989 76.8765 28.2555 77.0684 28.1695C77.2609 28.0836 77.4187 27.9587 77.5425 27.7952L77.8804 28.0537C77.7254 28.2614 77.5191 28.4238 77.2606 28.541C77.0019 28.6582 76.7226 28.7166 76.4221 28.7166C76.0955 28.716 75.8102 28.6554 75.5673 28.534Z" fill="#0A335B"/>
<path d="M78.9542 27.0723C78.9494 27.1033 78.9474 27.1495 78.9474 27.2112C78.9474 27.565 79.0481 27.8344 79.249 28.0198C79.45 28.2053 79.7493 28.2983 80.147 28.2983C80.3769 28.2983 80.5923 28.2594 80.7935 28.1822C80.9945 28.105 81.1588 27.9979 81.2873 27.8606L81.4992 28.1985C81.3358 28.362 81.1314 28.4891 80.8862 28.5799C80.641 28.6703 80.3815 28.7157 80.1075 28.7157C79.6039 28.7157 79.207 28.5833 78.9176 28.318C78.6281 28.0528 78.4835 27.6907 78.4835 27.231C78.4835 26.8423 78.5664 26.4908 78.7321 26.1771C78.8978 25.8635 79.1272 25.6171 79.4212 25.4379C79.7152 25.2589 80.0455 25.1696 80.4125 25.1696C80.8764 25.1696 81.2453 25.3012 81.5193 25.5639C81.7929 25.8268 81.9299 26.1881 81.9299 26.6475C81.9299 26.7758 81.9144 26.917 81.8837 27.0717H78.9542V27.0723ZM79.5041 25.8792C79.2566 26.087 79.0886 26.3677 79.0004 26.7211H81.486C81.4902 26.6904 81.4925 26.6484 81.4925 26.5951C81.4925 26.2682 81.393 26.0151 81.1943 25.8361C80.9956 25.6571 80.7304 25.5678 80.3989 25.5678C80.05 25.5678 79.7518 25.6718 79.5041 25.8792Z" fill="#0A335B"/>
</g>
<defs>
<linearGradient id="paint0_linear" x1="0.821528" y1="13.3866" x2="41.1691" y2="13.3866" gradientUnits="userSpaceOnUse">
<stop stop-color="#38E5F2"/>
<stop offset="1" stop-color="#8736BD"/>
</linearGradient>
<linearGradient id="paint1_linear" x1="9.74402" y1="11.0559" x2="2.13631" y2="39.0484" gradientUnits="userSpaceOnUse">
<stop stop-color="#38E5F2"/>
<stop offset="1" stop-color="#8736BD"/>
</linearGradient>
<linearGradient id="paint2_linear" x1="24.7984" y1="15.1474" x2="17.1907" y2="43.1399" gradientUnits="userSpaceOnUse">
<stop stop-color="#38E5F2"/>
<stop offset="1" stop-color="#8736BD"/>
</linearGradient>
<clipPath id="clip0">
<rect width="104.02" height="36" fill="white"/>
</clipPath>
</defs>
</svg>
