<svg width="72" height="52" viewBox="0 0 72 52" fill="none" xmlns="http://www.w3.org/2000/svg">
<g filter="url(#filter0_d)">
<path d="M54.3529 6H17.6471C14.5283 6 12 8.27928 12 11.0909V28.9091C12 31.7207 14.5283 34 17.6471 34H54.3529C57.4717 34 60 31.7207 60 28.9091V11.0909C60 8.27928 57.4717 6 54.3529 6Z" fill="white"/>
</g>
<path d="M40.943 16.4247C41.1222 15.2927 40.943 14.5272 40.3322 13.8268C39.6563 13.0531 38.4428 12.7273 36.8791 12.7273H32.3591C32.0415 12.7273 31.7727 12.9553 31.7239 13.273L29.8426 25.2123C29.8018 25.4485 29.9892 25.6602 30.2253 25.6602H33.0106L32.8152 26.8818C32.7826 27.0854 32.9455 27.2727 33.1491 27.2727H35.5027C35.7797 27.2727 36.0158 27.0691 36.0647 26.7922L36.0891 26.6701L36.5289 23.8603L36.5615 23.7056C36.6022 23.4287 36.8384 23.2251 37.1234 23.2251H37.4736C39.754 23.2251 41.5376 22.2967 42.0588 19.6254C42.2787 18.5096 42.1647 17.5731 41.5864 16.9134C41.4154 16.7179 41.1955 16.555 40.943 16.4247Z" fill="#009BDE"/>
<path d="M40.943 16.4247C41.1222 15.2927 40.943 14.5272 40.3322 13.8268C39.6563 13.0531 38.4428 12.7273 36.8791 12.7273H32.3591C32.0415 12.7273 31.7727 12.9553 31.7239 13.273L29.8426 25.2123C29.8018 25.4485 29.9892 25.6602 30.2253 25.6602H33.0106L33.711 21.2135L33.6866 21.352C33.7355 21.0343 34.0042 20.8063 34.3218 20.8063H35.6493C38.2555 20.8063 40.2915 19.7476 40.8942 16.6854C40.9186 16.5958 40.9268 16.5062 40.943 16.4247Z" fill="#022169"/>
<path d="M34.4684 16.441C34.501 16.2537 34.6232 16.099 34.7861 16.0175C34.8594 15.985 34.9408 15.9605 35.0304 15.9605H38.5731C38.9966 15.9605 39.3875 15.985 39.7459 16.042C39.8517 16.0583 39.9495 16.0745 40.0472 16.099C40.1449 16.1234 40.2345 16.1478 40.3322 16.1723C40.3811 16.1886 40.4218 16.1967 40.4625 16.213C40.6417 16.27 40.8046 16.3433 40.9512 16.4166C41.1304 15.2846 40.9512 14.519 40.3404 13.8186C39.6563 13.0531 38.4428 12.7273 36.8791 12.7273H32.3591C32.0415 12.7273 31.7727 12.9553 31.7239 13.273L29.8426 25.2123C29.8018 25.4485 29.9892 25.6602 30.2253 25.6602H33.0106L33.711 21.2135L34.4684 16.441Z" fill="#002F87"/>
<defs>
<filter id="filter0_d" x="0" y="0" width="72" height="52" filterUnits="userSpaceOnUse" color-interpolation-filters="sRGB">
<feFlood flood-opacity="0" result="BackgroundImageFix"/>
<feColorMatrix in="SourceAlpha" type="matrix" values="0 0 0 0 0 0 0 0 0 0 0 0 0 0 0 0 0 0 127 0" result="hardAlpha"/>
<feOffset dy="6"/>
<feGaussianBlur stdDeviation="6"/>
<feColorMatrix type="matrix" values="0 0 0 0 0.160784 0 0 0 0 0.168627 0 0 0 0 0.196078 0 0 0 0.12 0"/>
<feBlend mode="normal" in2="BackgroundImageFix" result="effect1_dropShadow"/>
<feBlend mode="normal" in="SourceGraphic" in2="effect1_dropShadow" result="shape"/>
</filter>
</defs>
</svg>
