<svg width="48" height="48" viewBox="0 0 48 48" fill="none" xmlns="http://www.w3.org/2000/svg">
<path d="M43.6178 15.3859C42.2246 13.7629 41.3074 11.79 40.8786 9.69452C40.5151 7.91759 39.7447 6.37568 38.5385 5.16949C33.0286 -0.340476 20.5138 3.24087 10.5859 13.1687C0.658104 23.0966 -2.92324 35.6112 2.58673 41.1212C5.20582 43.7403 9.4077 44.3045 14.162 43.1098C16.9232 42.416 19.8368 42.7079 22.4391 43.8626C24.6143 44.8278 27.014 45.3789 29.5383 45.4157C39.4454 45.5604 47.7021 37.6765 47.9919 27.7724C48.1306 23.0376 46.4587 18.6954 43.6178 15.3859Z" fill="url(#paint0_linear)"/>
<path opacity="0.1" d="M17.7711 19.2415C19.5818 19.2415 21.0497 17.7737 21.0497 15.9629C21.0497 14.1522 19.5818 12.6843 17.7711 12.6843C15.9603 12.6843 14.4924 14.1522 14.4924 15.9629C14.4924 17.7737 15.9603 19.2415 17.7711 19.2415Z" fill="#0000CC"/>
<path opacity="0.1" d="M41.9696 41.6315L39.1009 18.7434C39.0475 18.3205 38.6884 18.0027 38.2618 18.0027H34.9825V13.1208C34.9825 9.70089 32.2003 6.91867 28.7805 6.91867C25.3607 6.91867 22.5784 9.70098 22.5784 13.1208V18.0027H19.299C18.8725 18.0027 18.5134 18.3205 18.4609 18.7434L18.265 20.3062L18.2134 20.7171C17.6658 20.4378 17.0469 20.2792 16.3911 20.2792C14.1714 20.2792 12.3655 22.0851 12.3655 24.3047V27.3335H10.5801C10.1134 27.3335 9.73511 27.7118 9.73511 28.1785V41.736C9.73511 42.2027 10.1134 42.581 10.5801 42.581H16.4287H16.4292H41.1314C41.6396 42.5812 42.0334 42.1359 41.9696 41.6315ZM23.5159 13.1208C23.5159 10.2178 25.8775 7.85617 28.7805 7.85617C31.6834 7.85617 34.045 10.2178 34.045 13.1208V18.0027H23.5159V13.1208ZM13.303 24.3048C13.303 22.602 14.6883 21.2168 16.3911 21.2168C17.017 21.2168 17.5998 21.4045 18.0868 21.7259L17.3837 27.3337H13.303V24.3048H13.303Z" fill="#0000CC"/>
<path d="M41.1313 40.6124H16.4291C15.921 40.6124 15.5273 40.1671 15.591 39.6627L18.2648 18.3374L18.4607 16.7746C18.5132 16.3518 18.8723 16.034 19.2988 16.034H38.2616C38.6882 16.034 39.0473 16.3518 39.1007 16.7746L41.9695 39.6627C42.0332 40.1671 41.6395 40.6124 41.1313 40.6124Z" fill="#FF9D33"/>
<path d="M20.9133 16.034C20.5561 17.234 19.5286 18.1462 18.2649 18.3374L18.4608 16.7746C18.5133 16.3518 18.8724 16.034 19.299 16.034H20.9133Z" fill="#FF8B00"/>
<path d="M34.281 25.5L32.2454 27.5356C32.0623 27.7187 31.7656 27.7187 31.5825 27.5356L28.6917 24.6448C28.5888 24.5418 28.5396 24.397 28.5584 24.2527L28.7932 22.452C28.8207 22.2412 28.9866 22.0753 29.1974 22.0478L30.9982 21.813C31.1424 21.7941 31.2874 21.8434 31.3902 21.9463L34.281 24.8371C34.4641 25.0202 34.4641 25.317 34.281 25.5Z" fill="#FF8B00"/>
<path d="M41.3171 34.4552H16.2437L16.7387 30.5092H40.8221L41.3171 34.4552Z" fill="#FFC599"/>
<path d="M35.9377 38.1477H23.5159C23.2569 38.1477 23.0471 37.9378 23.0471 37.679C23.0471 37.4201 23.2569 37.2102 23.5159 37.2102H35.9377C36.1967 37.2102 36.4065 37.4201 36.4065 37.679C36.4065 37.9378 36.1967 38.1477 35.9377 38.1477Z" fill="#FF7300"/>
<path d="M23.0472 20.3453C23.6305 20.3453 24.1033 19.8724 24.1033 19.2891C24.1033 18.7058 23.6305 18.2329 23.0472 18.2329C22.4638 18.2329 21.991 18.7058 21.991 19.2891C21.991 19.8724 22.4638 20.3453 23.0472 20.3453Z" fill="#FF7300"/>
<path d="M34.5137 20.3453C35.097 20.3453 35.5699 19.8724 35.5699 19.2891C35.5699 18.7058 35.097 18.2329 34.5137 18.2329C33.9304 18.2329 33.4575 18.7058 33.4575 19.2891C33.4575 19.8724 33.9304 20.3453 34.5137 20.3453Z" fill="#FF7300"/>
<path d="M9.73511 26.2099V39.7675C9.73511 40.2341 10.1134 40.6124 10.5801 40.6124H22.2021C22.6688 40.6124 23.047 40.2341 23.047 39.7675V26.2099C23.047 25.7432 22.6688 25.3649 22.2021 25.3649H10.5802C10.1135 25.3648 9.73511 25.7432 9.73511 26.2099Z" fill="white"/>
<path d="M34.281 24.1875L32.2454 26.2231C32.0623 26.4062 31.7656 26.4062 31.5825 26.2231L28.6917 23.3323C28.5888 23.2293 28.5396 23.0845 28.5584 22.9402L28.7932 21.1395C28.8207 20.9287 28.9866 20.7628 29.1974 20.7353L30.9982 20.5005C31.1424 20.4816 31.2874 20.5309 31.3902 20.6338L34.281 23.5246C34.4641 23.7077 34.4641 24.0045 34.281 24.1875Z" fill="#FF2C2C"/>
<path d="M19.9009 32.1374H12.8811C12.6223 32.1374 12.4124 31.9275 12.4124 31.6687V29.3249C12.4124 29.0661 12.6223 28.8562 12.8811 28.8562H19.9009C20.1598 28.8562 20.3697 29.0661 20.3697 29.3249V31.6687C20.3697 31.9276 20.1598 32.1374 19.9009 32.1374Z" fill="#FF2C2C"/>
<path d="M18.3833 30.9655H14.3989C14.14 30.9655 13.9302 30.7556 13.9302 30.4968C13.9302 30.238 14.14 30.028 14.3989 30.028H18.3833C18.6422 30.028 18.8521 30.238 18.8521 30.4968C18.8521 30.7556 18.6421 30.9655 18.3833 30.9655Z" fill="white"/>
<path d="M17.7711 17.2728C19.5818 17.2728 21.0497 15.8049 21.0497 13.9942C21.0497 12.1834 19.5818 10.7155 17.7711 10.7155C15.9603 10.7155 14.4924 12.1834 14.4924 13.9942C14.4924 15.8049 15.9603 17.2728 17.7711 17.2728Z" fill="#FF4D4D"/>
<path d="M42.4348 39.6039L39.5654 16.7157C39.4832 16.06 38.9229 15.5653 38.2619 15.5653H34.9825V11.1519C34.9825 7.73196 32.2002 4.94974 28.7803 4.94974C25.3604 4.94974 22.5782 7.73205 22.5782 11.1519V15.5653H21.1719C21.3938 15.087 21.5185 14.5549 21.5185 13.9939C21.5185 11.9276 19.8375 10.2465 17.7712 10.2465C15.7048 10.2465 14.0238 11.9276 14.0238 13.9939C14.0238 16.0601 15.7048 17.7413 17.7712 17.7413C17.8033 17.7413 17.835 17.7397 17.867 17.7388L17.7651 18.552C17.3361 18.3957 16.8734 18.3103 16.3911 18.3103C14.1714 18.3103 12.3655 20.1162 12.3655 22.3359V24.896H10.5801C9.85567 24.896 9.26636 25.4853 9.26636 26.2097V39.7673C9.26636 40.4917 9.85567 41.081 10.5801 41.081H41.1314C41.5082 41.081 41.8673 40.9189 42.1165 40.6365C42.3656 40.3541 42.4817 39.9777 42.4348 39.6039ZM23.5157 11.152C23.5157 8.24899 25.8774 5.88733 28.7803 5.88733C31.6833 5.88733 34.045 8.24899 34.045 11.152V15.5654H30.6412V15.1061C30.6412 14.2617 29.9543 13.5748 29.11 13.5748C28.2656 13.5748 27.5787 14.2617 27.5787 15.1061V15.5654H23.5157V11.152ZM29.7037 15.5654H28.5161V15.1061C28.5161 14.7788 28.7825 14.5123 29.1099 14.5123C29.4372 14.5123 29.7036 14.7788 29.7036 15.1061L29.7037 15.5654ZM14.9613 13.994C14.9613 12.4447 16.2218 11.1841 17.7712 11.1841C19.3206 11.1841 20.581 12.4446 20.581 13.994C20.581 15.5434 19.3206 16.8039 17.7712 16.8039C16.2218 16.8039 14.9613 15.5434 14.9613 13.994ZM13.3029 22.336C13.3029 20.6332 14.6881 19.2479 16.3909 19.2479C16.837 19.2479 17.2609 19.3437 17.6442 19.5147L17.2658 22.534C17.2335 22.7908 17.4157 23.0251 17.6725 23.0574C17.9293 23.0893 18.1638 22.9074 18.196 22.6506L18.5159 20.0985C19.1084 20.6616 19.479 21.456 19.479 22.336V24.8961H13.303L13.3029 22.336ZM41.4134 40.0163C41.3714 40.0638 41.279 40.1435 41.1313 40.1435H23.4601C23.4958 40.0242 23.5156 39.8981 23.5156 39.7673V29.3973C23.5156 29.1384 23.3057 28.9286 23.0469 28.9286C22.788 28.9286 22.5781 29.1384 22.5781 29.3973V39.7673C22.5781 39.9747 22.4094 40.1435 22.2019 40.1435H10.58C10.3725 40.1435 10.2038 39.9747 10.2038 39.7673V26.2097C10.2038 26.0022 10.3725 25.8335 10.58 25.8335H12.3655V27.0675C12.3655 27.3265 12.5754 27.5363 12.8342 27.5363C13.093 27.5363 13.303 27.3265 13.303 27.0675V25.8336H19.479V27.0676C19.479 27.3265 19.6889 27.5364 19.9478 27.5364C20.2066 27.5364 20.4165 27.3265 20.4165 27.0676V25.8336H22.202C22.4095 25.8336 22.5782 26.0023 22.5782 26.2098C22.5782 26.4687 22.7881 26.6786 23.047 26.6786C23.3058 26.6786 23.5157 26.4687 23.5157 26.2098C23.5157 25.4854 22.9264 24.8961 22.202 24.8961H20.4165V22.336C20.4165 20.9542 19.7165 19.733 18.6527 19.0078L18.8307 17.5879C19.5016 17.3897 20.0949 17.0092 20.552 16.503H22.5782V17.8384C21.9661 18.0367 21.522 18.6116 21.522 19.2888C21.522 20.1297 22.2061 20.8138 23.047 20.8138C23.8878 20.8138 24.572 20.1297 24.572 19.2888C24.572 18.6115 24.1278 18.0367 23.5157 17.8384V16.503H29.7037V20.1964L29.1368 20.2704C28.7157 20.3252 28.3833 20.6576 28.3283 21.0788L28.0934 22.8795C28.0561 23.1661 28.1558 23.4593 28.3601 23.6635L31.2509 26.5545C31.4337 26.7372 31.6737 26.8286 31.9138 26.8286C32.1539 26.8286 32.394 26.7371 32.5767 26.5544L34.6123 24.5187C34.7894 24.3416 34.8869 24.1063 34.8869 23.8559C34.8869 23.6055 34.7894 23.37 34.6123 23.1931L31.7215 20.3022C31.5171 20.0979 31.2241 19.9979 30.9373 20.0355L30.6411 20.0741V16.503H34.0448V17.8384C33.4327 18.0367 32.9885 18.6115 32.9885 19.2888C32.9885 20.1297 33.6726 20.8138 34.5135 20.8138C35.3545 20.8138 36.0385 20.1297 36.0385 19.2888C36.0385 18.6115 35.5944 18.0367 34.9823 17.8384V16.503H38.2617C38.451 16.503 38.6115 16.6447 38.635 16.8326L41.5044 39.7207C41.523 39.8671 41.4553 39.9686 41.4134 40.0163ZM22.5989 18.9098C22.6557 19.1047 22.8337 19.2479 23.047 19.2479C23.2601 19.2479 23.4382 19.1047 23.495 18.9098C23.5818 19.0122 23.6345 19.1444 23.6345 19.2889C23.6345 19.6128 23.371 19.8764 23.047 19.8764C22.723 19.8764 22.4595 19.6128 22.4595 19.2889C22.4595 19.1443 22.5121 19.0121 22.5989 18.9098ZM30.1724 22.0749C30.4313 22.0749 30.6412 21.8651 30.6412 21.6061V21.0194L31.0586 20.965L33.9499 23.8554L31.9139 25.8915L29.0231 23.0006L29.258 21.1999L29.7038 21.1418V21.6061C29.7037 21.8651 29.9136 22.0749 30.1724 22.0749ZM34.0657 18.9097C34.1225 19.1046 34.3004 19.2478 34.5137 19.2478C34.727 19.2478 34.9049 19.1046 34.9617 18.9097C35.0485 19.0121 35.1012 19.1443 35.1012 19.2888C35.1012 19.6127 34.8377 19.8763 34.5137 19.8763C34.1897 19.8763 33.9262 19.6127 33.9262 19.2888C33.9262 19.1443 33.9789 19.0121 34.0657 18.9097Z" fill="#7B61FF"/>
<path d="M17.7712 15.5639C17.5124 15.5639 17.3025 15.3541 17.3025 15.0952V12.8931C17.3025 12.6342 17.5124 12.4243 17.7712 12.4243C18.0301 12.4243 18.24 12.6342 18.24 12.8931V15.0952C18.24 15.354 18.0301 15.5639 17.7712 15.5639Z" fill="white"/>
<path d="M18.8723 14.4629H16.6702C16.4113 14.4629 16.2014 14.2531 16.2014 13.9941C16.2014 13.7352 16.4113 13.5254 16.6702 13.5254H18.8723C19.1311 13.5254 19.341 13.7352 19.341 13.9941C19.341 14.2531 19.1311 14.4629 18.8723 14.4629Z" fill="white"/>
<path d="M6.8675 25.1172C6.7475 25.1172 6.62759 25.0715 6.536 24.9799C6.35291 24.7969 6.35291 24.5001 6.536 24.3171L7.4735 23.3795C7.65659 23.1964 7.95331 23.1964 8.1364 23.3795C8.31949 23.5625 8.31949 23.8594 8.1364 24.0424L7.19891 24.9799C7.10741 25.0715 6.9875 25.1172 6.8675 25.1172Z" fill="#FF6C6C"/>
<path d="M17.9959 7.39786C17.8759 7.39786 17.756 7.35211 17.6644 7.26052C17.4813 7.07752 17.4813 6.78071 17.6644 6.59771L18.6019 5.66021C18.785 5.47711 19.0817 5.47711 19.2648 5.66021C19.4479 5.84321 19.4479 6.14002 19.2648 6.32302L18.3273 7.26052C18.2358 7.35211 18.1158 7.39786 17.9959 7.39786Z" fill="#FF6C6C"/>
<path d="M40.0119 13.0368C39.8919 13.0368 39.772 12.9911 39.6804 12.8995L39.0744 12.2935L38.4684 12.8995C38.2853 13.0826 37.9886 13.0826 37.8055 12.8995C37.6224 12.7165 37.6224 12.4197 37.8055 12.2367L38.743 11.2992C38.9261 11.1161 39.2228 11.1161 39.4059 11.2992L40.3434 12.2367C40.5265 12.4197 40.5265 12.7165 40.3434 12.8995C40.2518 12.991 40.1319 13.0368 40.0119 13.0368Z" fill="#FF9D33"/>
<path d="M42.0701 16.5014C41.9501 16.5014 41.8302 16.4557 41.7386 16.3641C41.5555 16.1811 41.5555 15.8843 41.7386 15.7013L42.6761 14.7638C42.8592 14.5807 43.1559 14.5807 43.339 14.7638C43.5221 14.9468 43.5221 15.2436 43.339 15.4266L42.4015 16.3641C42.31 16.4556 42.1901 16.5014 42.0701 16.5014Z" fill="#6C6CFF"/>
<path d="M6.86741 37.6614C6.74741 37.6614 6.6275 37.6157 6.53591 37.5241L5.92991 36.9181L5.32391 37.5241C5.14081 37.7072 4.8441 37.7072 4.661 37.5241C4.47791 37.3411 4.47791 37.0443 4.661 36.8613L5.5985 35.9238C5.7816 35.7407 6.07831 35.7407 6.26141 35.9238L7.19891 36.8613C7.382 37.0443 7.382 37.3411 7.19891 37.5241C7.10731 37.6156 6.98741 37.6614 6.86741 37.6614Z" fill="#FF9D33"/>
<defs>
<linearGradient id="paint0_linear" x1="24" y1="56.0808" x2="24" y2="5.72365" gradientUnits="userSpaceOnUse">
<stop offset="0.0023" stop-color="#FFC599"/>
<stop offset="0.992" stop-color="#FFE8DC" stop-opacity="0"/>
</linearGradient>
</defs>
</svg>
